<svg xmlns="http://www.w3.org/2000/svg" xmlns:xlink="http://www.w3.org/1999/xlink" version="1.1" id="Layer_1" x="0px" y="0px" width="100px" height="100px" viewBox="0 0 100 100" enable-background="new 0 0 100 100" xml:space="preserve">
<path d="M66,29H45c-1.901,0-3.485,1.33-3.892,3.108C41.396,32.042,41.692,32,42,32h21c2.209,0,4,1.791,4,4v21  c0,0.308-0.042,0.604-0.108,0.892C68.67,57.485,70,55.901,70,54V33C70,30.791,68.209,29,66,29z"/>
<path d="M60,35H39c-1.901,0-3.485,1.33-3.892,3.108C35.396,38.042,35.692,38,36,38h21c2.209,0,4,1.791,4,4v21  c0,0.308-0.042,0.604-0.108,0.892C62.67,63.485,64,61.901,64,60V39C64,36.791,62.209,35,60,35z"/>
<path d="M58,66c0,2.209-1.791,4-4,4H33c-2.209,0-4-1.791-4-4V45c0-2.209,1.791-4,4-4h21c2.209,0,4,1.791,4,4V66z"/>
</svg>