<?xml version="1.0" encoding="UTF-8" standalone="no"?>
<!-- Created with Inkscape (http://www.inkscape.org/) -->

<svg
   xmlns:dc="http://purl.org/dc/elements/1.1/"
   xmlns:cc="http://creativecommons.org/ns#"
   xmlns:rdf="http://www.w3.org/1999/02/22-rdf-syntax-ns#"
   xmlns:svg="http://www.w3.org/2000/svg"
   xmlns="http://www.w3.org/2000/svg"
   xmlns:sodipodi="http://sodipodi.sourceforge.net/DTD/sodipodi-0.dtd"
   xmlns:inkscape="http://www.inkscape.org/namespaces/inkscape"
   width="100"
   height="100"
   id="svg2"
   version="1.1"
   inkscape:version="0.48.2 r9819"
   inkscape:export-filename="C:\Users\Tim Monks\forge-workspace\stable\tm-angular-seed\src\img\group.png"
   inkscape:export-xdpi="90"
   inkscape:export-ydpi="90"
   sodipodi:docname="New document 1">
  <defs
     id="defs4" />
  <sodipodi:namedview
     id="base"
     pagecolor="#ffffff"
     bordercolor="#666666"
     borderopacity="1.0"
     inkscape:pageopacity="0.0"
     inkscape:pageshadow="2"
     inkscape:zoom="2"
     inkscape:cx="40.023172"
     inkscape:cy="172.16808"
     inkscape:document-units="px"
     inkscape:current-layer="layer1"
     showgrid="false"
     inkscape:window-width="1814"
     inkscape:window-height="1058"
     inkscape:window-x="98"
     inkscape:window-y="-8"
     inkscape:window-maximized="1" />
  <metadata
     id="metadata7">
    <rdf:RDF>
      <cc:Work
         rdf:about="">
        <dc:format>image/svg+xml</dc:format>
        <dc:type
           rdf:resource="http://purl.org/dc/dcmitype/StillImage" />
        <dc:title></dc:title>
      </cc:Work>
    </rdf:RDF>
  </metadata>
  <g
     inkscape:label="Layer 1"
     inkscape:groupmode="layer"
     id="layer1"
     transform="translate(0,-952.36218)">
    <g
       id="g3094"
       transform="translate(-1464.0192,308.07597)" />
    <g
       id="g3128"
       transform="matrix(1.0212809,0,0,1.0638185,-0.79187527,949.17072)">
      <g
         id="g3108">
	<path
   id="path3110"
   d="m 29.367,34.304 c 3.094,0 5.919,-1.122 8.106,-2.973 -3.069,-3.341 -4.972,-7.769 -4.972,-12.665 0,-2.99 0.716,-5.806 1.958,-8.317 -1.558,-0.69 -3.277,-1.083 -5.092,-1.083 -6.931,0 -12.547,5.604 -12.547,12.52 0,6.914 5.617,12.518 12.547,12.518 z"
   inkscape:connector-curvature="0"
   style="fill:#000000" />

	<path
   id="path3112"
   d="m 70.101,18.667 c 0,4.896 -1.903,9.324 -4.974,12.665 2.188,1.851 5.014,2.973 8.107,2.973 6.929,0 12.545,-5.604 12.545,-12.518 0,-6.915 -5.616,-12.52 -12.545,-12.52 -1.814,0 -3.534,0.393 -5.092,1.084 1.243,2.509 1.959,5.325 1.959,8.316 z"
   inkscape:connector-curvature="0"
   style="fill:#000000" />

	<path
   id="path3114"
   d="M 29.367,65.667 26.24,37.513 C 19.086,37.886 10.567,40.6 10.567,40.6 L 13.7,62.533 19.967,68.8 v 18.8 c 0,0 4.117,3.134 7.833,3.134 3.67,0 7.833,-3.134 7.833,-3.134 V 69.844 l -6.266,-4.177 z"
   inkscape:connector-curvature="0"
   style="fill:#000000" />

	<path
   id="path3116"
   d="m 76.324,37.851 -3.09,27.816 -9.4,6.267 V 87.6 c 0,0 4.117,3.134 7.833,3.134 3.671,0 7.834,-3.134 7.834,-3.134 V 68.8 L 86.438,63.139 88.9,41.063 c 0,0 -6.291,-2.288 -12.576,-3.212 z"
   inkscape:connector-curvature="0"
   style="fill:#000000" />

</g>
      <path
         id="path3118"
         d="m 29.367,40.6 c 0,0 12.504,-3.133 21.934,-3.133 9.371,0 21.934,3.133 21.934,3.133 l -3.134,25.067 -9.399,6.267 v 21.933 c 0,0 -4.729,3.134 -9.4,3.134 -4.729,0 -9.4,-3.134 -9.4,-3.134 V 71.934 L 32.502,65.667 29.367,40.6 z"
         clip-rule="evenodd"
         inkscape:connector-curvature="0"
         style="fill:#000000;fill-rule:evenodd" />
      <path
         id="path3120"
         d="m 51.301,3 c 8.651,0 15.667,7.013 15.667,15.667 0,8.652 -7.016,15.667 -15.667,15.667 -8.653,0 -15.667,-7.015 -15.667,-15.667 C 35.634,10.013 42.647,3 51.301,3 z"
         clip-rule="evenodd"
         inkscape:connector-curvature="0"
         style="fill:#000000;fill-rule:evenodd" />
    </g>
  </g>
</svg>
